<svg viewBox="0 0 80 80" fill="none" xmlns="http://www.w3.org/2000/svg"><path d="M59.376 23.669a44.958 44.958 0 00-11.086-3.343c-.523.911-.993 1.85-1.408 2.814a43.114 43.114 0 00-12.284 0c-.38-.876-.948-1.991-1.408-2.814a44.326 44.326 0 00-11.068 3.343c-7.023 10.138-8.94 20.035-7.97 29.796a45.537 45.537 0 0013.585 6.66 32.324 32.324 0 002.9-4.59 28.455 28.455 0 01-4.581-2.149c.38-.267.76-.555 1.108-.849a32.468 32.468 0 0013.57 2.967 32.47 32.47 0 0013.568-2.966c.38.293.733.581 1.113.848a28.638 28.638 0 01-4.581 2.149 31.935 31.935 0 002.9 4.59 45.35 45.35 0 0013.585-6.66c1.14-11.302-1.868-21.12-7.943-29.796zM31.83 47.445c-2.655 0-4.823-2.363-4.823-5.25 0-2.889 2.114-5.251 4.823-5.251 2.709 0 4.881 2.362 4.828 5.25-.054 2.888-2.141 5.25-4.828 5.25zm17.814 0c-2.656 0-4.828-2.363-4.828-5.25 0-2.889 2.119-5.251 4.828-5.251 2.708 0 4.88 2.362 4.827 5.25-.053 2.888-2.114 5.25-4.828 5.25z" fill="lightyellow"></path></svg>