<svg id="Layer_1" data-name="Layer 1" xmlns="http://www.w3.org/2000/svg" viewBox="0 0 565.97 387.56"><defs><style>.cls-1{fill:#fff9ef;}.cls-2{fill:#008056;}</style></defs><path class="cls-1" d="M508.86,214.44c5.7,8.3,6.8,20.6,2.7,31-2.4,6.1-7.4,13.7-17.2,26.2-4.8,6-10.4,13.3-12.4,16.2-7.9,10.9-15.9,14.9-28.6,14.1-16.3-.9-31.1-14.8-31.1-29.4,0-4.9-.1-5.1-3.3-6.1a9.74,9.74,0,0,0-5.6-.1c-1.3.4-8.3,1.6-15.6,2.5l-13.3,1.6-.4,11.6c-.3,9.3-.8,12.6-2.6,16.6-9.2,20.3-36.8,24.3-54,7.9-3.3-3.2-5.7-4.6-9.5-5.4a42.13,42.13,0,0,1-19-9.8l-3.7-3.6-2.9,3.4a26.83,26.83,0,0,1-7.4,5.8c-5,2.5-14.9,4.6-17.9,3.8-1.2-.3-3.8.8-6.6,2.8-7.2,5-10.8,6.1-19.9,6-7.4,0-9-.4-15.6-3.7-6.4-3.2-8.5-3.7-14.3-3.7a45.14,45.14,0,0,1-13.9-2.4l-7-2.4-4,2.1c-3.2,1.7-5.7,2.2-12.5,2.2-7.4,0-9.3-.4-15-3.1a37.42,37.42,0,0,1-17.7-17.2c-2.7-5.4-2.8-6.5-3.1-23-.2-9.4-.6-17.2-.9-17.2a30.55,30.55,0,0,0-4.5,2.2l-4,2.3.9,7.5c.4,4.1.8,11.3.8,16,0,7.3-.4,9.3-2.8,14.1a36.93,36.93,0,0,1-16.5,16.2c-3.8,1.8-6.6,2.2-14.2,2.2-8.3,0-10.2-.3-15-2.7-12.8-6.3-16-12.4-19-36.3-1.3-10-2.8-17.6-3.6-18.5-4.2-4.8-5.7-18.2-2.9-26.4,1.4-4,1.3-5.5-.7-18.2-2.9-19-3-35.3-.2-41.5,5.3-11.4,14-17,27.4-17.7,4.7-.2,9.6,0,10.9.5,2,.8,4.1,0,12.4-4.5,12-6.6,19.9-9.2,27.6-9.2,5.5,0,5.9-.2,11.2-5.4,3.2-3,7.5-6,10-6.9,3.1-1.2,7.1-1.6,13.9-1.4,11.7.3,18.3,3.1,25.4,10.7s8.9,12.4,9.6,26.4l.5,11.9,5,1.3c2.8.7,5.5,1.4,6,1.5s3-.8,5.5-2.1c3.8-2.1,6-2.5,14.7-2.6s10.7-.5,14.5-2.7c8.9-5.2,20.7-6,29.9-2,3.8,1.7,4.9,1.8,8.4.7,6.7-2.1,16.3-1.7,22.6,1l5.7,2.3.4-10.6c.3-9.1.7-11.4,3.1-16.3,3.5-7,10.2-13.1,16.9-15.4,6.2-2,17-1.5,23.8,1.2,10,3.9,18.4,12.1,20.9,20.5l1.1,3.7,5.8-1.5c7.1-1.9,13-.8,23.2,4.3,11.5,5.8,17.3,15.1,17.4,28l.1,7.2,5.5-3.8c10.6-7.2,18.6-10.2,31.7-12.1,17-2.4,31.7,4.2,38.5,17.4,2.5,4.8,3.6,17.9,2.1,23.7C505.76,209.24,506,210.14,508.86,214.44Zm-35.6,43.8c18.6-23.4,20.4-30.7,8.3-34-5.6-1.6-8.2-1.4-24.8,1.9-16.2,3.2-20.5,3.6-20.5,1.9,0-.6,4-5.1,8.9-9.9,10.8-10.7,18.6-14.9,29.5-15.9l7.1-.6.3-4.8c.3-4.6.2-4.8-3.2-6.2-5.4-2.3-12.7-1.5-23,2.5-4.9,1.8-24.8,17.4-31.8,24.9-11,11.6-11.4,18.1-1.4,23,7.4,3.7,16.5,3.9,31.6.7,6.7-1.5,12.5-2.4,12.8-2.1.9.9-3.2,7.5-8.8,14.2-13.7,16.2-13.6,15.9-9.1,20.4a8.34,8.34,0,0,0,6.5,2.9c3,0,3.9-.6,6.6-4.6C464.06,270,469,263.64,473.26,258.24Zm-63.7-17.9c3-2.7,1.8-9-2.3-11.2-1-.5-10.5-1.9-21.1-3s-19.6-2.3-20-2.6,7.6-10.6,17.9-23,19.1-23.6,19.6-25c1.1-3.4-1.7-7.3-6.5-8.9s-7.2-.3-12,7.3c-2.3,3.6-9.3,12.3-15.5,19.4l-11.4,12.8v-29c0-32.1-.1-32.8-6.2-34.9-4.6-1.6-8.6-1.4-9.7.6-.5,1.1-.8,30.2-.7,71.8.1,76.9-.2,72.9,6.2,76,4.3,2,7,1.9,9.4-.5,2-2,2.1-3.2,2-27.3-.1-13.9.2-25.1.7-25.1s6.9.9,14.3,1.8C406.36,243.34,406,243.34,409.56,240.34Zm-79.7,33.3c1.5-3.7,1.4-3.9-3-16-3-8.3-6.4-20.9-10.1-38-5.7-26.6-8.2-33.5-13.1-37.4a9.81,9.81,0,0,0-11.2-.5c-3,2.1-4.6,5.4-10.7,21.8-3.1,8-5.5,13.3-6,12.6s-.4-7.9,0-16.1l.7-14.9-3.5-3.5c-3.9-3.9-8.4-4.7-11.1-1.9-1.9,1.9-1.8-1.3-1.6,37.9,0,17.6-.4,36.4-.9,41.8s-.7,10.5-.4,11.3,2.3,2.4,4.6,3.5c4.9,2.5,9.9,1.9,11.4-1.4.6-1.2,5-14.4,9.8-29.2,8.7-27,10.7-31.4,13-29.5,1.5,1.3,3.9,9.6,6,21,2.7,14.1,6.5,28,9.1,33.1,2.8,5.7,5.7,7.9,11.4,8.6C328.16,277.34,328.26,277.24,329.86,273.64Zm-84.1,9.5c2.1-2.3,2.1-5,0-57-1.3-31.8-1.6-35.7-3.3-38-1.5-1.9-2.9-2.6-6.6-2.8-3.1-.2-4.8.1-5,1-.3.7-.7,9.2-1,18.8-.5,17.8-2.8,32.4-6.2,40.6-2.5,6.1-7.2,12.3-10.6,14-2.9,1.5-3.2,1.5-5-.4-6.3-6.3-6.2-38.7.2-55.5,2.6-6.8,2.5-9.8-.4-13-4.3-4.6-10.1-4.8-15.2-.3l-2.7,2.3-.9,23.9c-1.1,27.9-.6,36.1,2.3,43.9,2.3,6.2,7.5,12.8,12,15.1a22.43,22.43,0,0,0,8.2,1.4c7.1,0,9.7-2.1,14-11.2l3.4-7.1,1.7,9.9c2.3,13.2,2.3,13.2,5.6,14.9C240.26,285.64,243.56,285.54,245.76,283.14Zm-65.2-10.9-.7-31.8c-.3-17.5-.9-46.2-1.2-63.8s-1.1-32.8-1.6-33.8a11.37,11.37,0,0,0-3.1-3.1,14.25,14.25,0,0,0-9.4-1.9c-4.4.8-4.6,2-3.3,21,.6,10.2,1,37.5.9,63.8-.2,34.6.1,46.6,1,48.3,1.6,3,6.9,6.2,10.2,6.2a8,8,0,0,0,4.9-2.5Zm-27.8-73.3c2.2-8.7-2.5-7.9-30,5.1-20.3,9.6-23.1,10.7-24,9.3-.5-1-1.1-7.2-1.3-13.8l-.4-12.2,4.8-2.8c2.7-1.6,8.8-5.3,13.6-8.4s11-6.9,13.9-8.5c6.3-3.6,9-7,9.2-11.6.2-3.4.1-3.4-4.3-3.7-5.2-.2-7.6.7-25.3,10.6-7,4-13,7.2-13.3,7.2a21.29,21.29,0,0,1-4.2-2.5c-4.7-3.2-11.6-3.5-13.2-.6s-1.2,10.1,1.5,28.6c2.8,19.5,3,24,1,27.5s-1.8,6,.9,8.9c2.1,2.3,2.6,4.8,4.6,22,2.7,22,3.1,23.1,10,23.1,5,0,9-3.5,9-7.7,0-1.5-.9-10.6-2.1-20.1-2.1-16.3-2.1-17.3-.5-18.5,1-.7,10.5-5.7,21.3-11.1C144.26,209.54,151.46,204.34,152.76,198.94Z"/><path class="cls-2" d="M481.56,224.24c12.1,3.3,10.3,10.6-8.3,34-4.3,5.4-9.2,11.8-11,14.3-2.7,4-3.6,4.6-6.6,4.6a8.34,8.34,0,0,1-6.5-2.9c-4.5-4.5-4.6-4.2,9.1-20.4,5.6-6.7,9.7-13.3,8.8-14.2-.3-.3-6.1.6-12.8,2.1-15.1,3.2-24.2,3-31.6-.7-10-4.9-9.6-11.4,1.4-23,7-7.5,26.9-23.1,31.8-24.9,10.3-4,17.6-4.8,23-2.5,3.4,1.4,3.5,1.6,3.2,6.2l-.3,4.8-7.1.6c-10.9,1-18.7,5.2-29.5,15.9-4.9,4.8-8.9,9.3-8.9,9.9,0,1.7,4.3,1.3,20.5-1.9C473.36,222.84,476,222.64,481.56,224.24Z"/><path class="cls-2" d="M407.26,229.14c4.1,2.2,5.3,8.5,2.3,11.2-3.6,3-3.2,3-35.3-.8-7.4-.9-13.9-1.7-14.3-1.8s-.8,11.2-.7,25.1c.1,24.1,0,25.3-2,27.3-2.4,2.4-5.1,2.5-9.4.5-6.4-3.1-6.1.9-6.2-76-.1-41.6.2-70.7.7-71.8,1.1-2,5.1-2.2,9.7-.6,6.1,2.1,6.2,2.8,6.2,34.9v29l11.4-12.8c6.2-7.1,13.2-15.8,15.5-19.4,4.8-7.6,7.1-9,12-7.3s7.6,5.5,6.5,8.9c-.5,1.4-9.3,12.6-19.6,25s-18.4,22.8-17.9,23,9.4,1.4,20,2.6S406.26,228.64,407.26,229.14Z"/><path class="cls-2" d="M326.86,257.64c4.4,12.1,4.5,12.3,3,16s-1.7,3.7-5.6,3.2c-5.7-.7-8.6-2.9-11.4-8.6-2.6-5.1-6.4-19-9.1-33.1-2.1-11.4-4.5-19.7-6-21-2.3-1.9-4.3,2.5-13,29.5-4.8,14.8-9.2,28-9.8,29.2-1.5,3.3-6.5,3.9-11.4,1.4-2.3-1.1-4.3-2.7-4.6-3.5s-.1-5.8.4-11.3.9-24.2.9-41.8c-.2-39.2-.3-36,1.6-37.9,2.7-2.8,7.2-2,11.1,1.9l3.5,3.5-.7,14.9c-.4,8.2-.4,15.5,0,16.1s2.9-4.6,6-12.6c6.1-16.4,7.7-19.7,10.7-21.8a9.81,9.81,0,0,1,11.2.5c4.9,3.9,7.4,10.8,13.1,37.4C320.46,236.74,323.86,249.34,326.86,257.64Z"/><path class="cls-2" d="M245.76,226.14c2.1,52,2.1,54.7,0,57s-5.5,2.5-9.5.5c-3.3-1.7-3.3-1.7-5.6-14.9l-1.7-9.9-3.4,7.1c-4.3,9.1-6.9,11.2-14,11.2a22.43,22.43,0,0,1-8.2-1.4c-4.5-2.3-9.7-8.9-12-15.1-2.9-7.8-3.4-16-2.3-43.9l.9-23.9,2.7-2.3c5.1-4.5,10.9-4.3,15.2.3,2.9,3.2,3,6.2.4,13-6.4,16.8-6.5,49.2-.2,55.5,1.8,1.9,2.1,1.9,5,.4,3.4-1.7,8.1-7.9,10.6-14,3.4-8.2,5.7-22.8,6.2-40.6.3-9.6.7-18.1,1-18.8.2-.9,1.9-1.2,5-1,3.7.2,5.1.9,6.6,2.8C244.16,190.44,244.46,194.34,245.76,226.14Z"/><path class="cls-2" d="M179.86,240.44l.7,31.8-2.3,2.4a8,8,0,0,1-4.9,2.5c-3.3,0-8.6-3.2-10.2-6.2-.9-1.7-1.2-13.7-1-48.3.1-26.3-.3-53.6-.9-63.8-1.3-19-1.1-20.2,3.3-21a14.25,14.25,0,0,1,9.4,1.9,11.37,11.37,0,0,1,3.1,3.1c.5,1,1.2,16.2,1.6,33.8S179.56,222.94,179.86,240.44Z"/><path class="cls-2" d="M122.76,204c27.5-13,32.2-13.8,30-5.1-1.3,5.4-8.5,10.6-28.8,20.8-10.8,5.4-20.3,10.4-21.3,11.1-1.6,1.2-1.6,2.2.5,18.5,1.2,9.5,2.1,18.6,2.1,20.1,0,4.2-4,7.7-9,7.7-6.9,0-7.3-1.1-10-23.1-2-17.2-2.5-19.7-4.6-22-2.7-2.9-3-5.3-.9-8.9s1.8-8-1-27.5c-2.7-18.5-3.1-25.6-1.5-28.6s8.5-2.6,13.2.6a21.29,21.29,0,0,0,4.2,2.5c.3,0,6.3-3.2,13.3-7.2,17.7-9.9,20.1-10.8,25.3-10.6,4.4.3,4.5.3,4.3,3.7-.2,4.6-2.9,8-9.2,11.6-2.9,1.6-9.1,5.5-13.9,8.5s-10.9,6.8-13.6,8.4l-4.8,2.8.4,12.2c.2,6.6.8,12.8,1.3,13.8C99.66,214.74,102.46,213.64,122.76,204Z"/></svg>