<svg viewBox="0 0 80 80" fill="none" xmlns="http://www.w3.org/2000/svg"><g clip-path="url(#gitbook_svg__clip0_833_14307)"><path d="M38.43 57.283c.965 0 1.753.788 1.753 1.753 0 .966-.788 1.753-1.753 1.753a1.756 1.756 0 01-1.753-1.753 1.75 1.75 0 011.753-1.753zm27.562-10.856a1.756 1.756 0 01-1.753-1.753c0-.965.787-1.753 1.753-1.753.965 0 1.753.788 1.753 1.753 0 .966-.788 1.753-1.753 1.753zm0-7.172c-3 0-5.438 2.438-5.438 5.428 0 .582.094 1.163.291 1.725l-17.953 9.535a5.427 5.427 0 00-4.462-2.335 5.442 5.442 0 00-4.875 3.038L17.43 48.152c-1.706-.89-2.98-3.694-2.84-6.244.065-1.33.534-2.362 1.228-2.765.44-.253.984-.234 1.547.066l.103.056c4.275 2.25 18.262 9.6 18.853 9.871.909.422 1.415.591 2.962-.14l28.912-15.01c.422-.159.919-.562.919-1.18 0-.853-.882-1.191-.891-1.191-1.64-.787-4.172-1.969-6.637-3.122-5.269-2.465-11.24-5.26-13.866-6.628-2.268-1.181-4.087-.187-4.415.019l-.628.31c-11.794 5.83-27.6 13.64-28.49 14.193-1.613.975-2.607 2.925-2.738 5.343-.197 3.835 1.763 7.838 4.556 9.3l17.053 8.784a5.438 5.438 0 005.372 4.65 5.44 5.44 0 005.437-5.343l18.787-10.163a5.483 5.483 0 003.347 1.154c3 0 5.438-2.438 5.438-5.428a5.447 5.447 0 00-5.447-5.428z" fill="#008056"></path></g><defs><clipPath id="gitbook_svg__clip0_833_14307"><path fill="lightyellow" transform="translate(11.43 21.303)" d="M0 0h59.999v43.152H0z"></path></clipPath></defs></svg>