<svg width="15" height="16" viewBox="0 0 15 16" fill="none" xmlns="http://www.w3.org/2000/svg">
<path fill="CurrentColor" d="M2.99231 9.7867C3.44542 10.1044 3.89853 10.1044 4.35164 10.1044C5.62036 10.1044 6.93438 10.286 8.2031 10.1498C9.15463 10.0136 10.378 10.1044 11.5108 10.1044C11.6014 10.1044 11.7374 10.059 11.8733 10.059C12.8248 9.87748 13.7311 9.7867 14.6826 10.059C14.8185 9.87748 14.9092 9.69592 14.9998 9.51437C14.7732 8.51581 14.8185 7.83498 14.8185 6.79103C14.5467 6.60948 14.6373 6.15559 14.2748 5.97403C14.2748 5.97403 14.2295 5.92864 14.1389 5.88325C13.9123 5.92864 13.2326 6.20097 12.9155 5.97403C12.8248 5.92864 12.553 5.92864 12.4623 6.01942C12.0545 6.24636 12.1452 6.1102 11.7374 6.1102C10.3327 6.1102 8.92807 5.97403 7.52343 5.97403C7.20625 6.01942 6.88907 6.01942 6.52658 6.1102C6.16409 6.20098 5.75629 6.20097 5.34849 6.20097H0.636127C0.409571 6.20097 0.183015 6.20097 0.00176997 6.42792V7.51725C0.0470811 7.92575 0.00177001 8.24348 0.137704 8.5612C0.273637 8.9697 0.228326 9.19664 0.0923924 9.51437C0.228326 9.74131 0.273637 9.96825 0.545504 10.1044C1.27048 10.0136 2.08608 10.286 2.99231 9.7867Z"></path>
<path fill="CurrentColor" d="M2.99054 15.5862C3.44365 15.904 3.89676 15.904 4.34987 15.904C5.61859 15.904 6.93262 16.0855 8.20133 15.9494C9.15287 15.8132 10.3763 15.904 11.509 15.904C11.5997 15.904 11.7356 15.8586 11.8715 15.8586C12.8231 15.677 13.7293 15.5862 14.6808 15.8586C14.8168 15.677 14.9074 15.4955 14.998 15.3139C14.7715 14.3154 14.8168 13.6345 14.8168 12.5906C14.5449 12.409 14.6355 11.9551 14.273 11.7736C14.273 11.7736 14.2277 11.7282 14.1371 11.6828C13.9105 11.7282 13.2309 12.0005 12.9137 11.7736C12.8231 11.7282 12.5512 11.7282 12.4606 11.819C12.0528 12.0459 12.1434 11.9097 11.7356 11.9097C10.331 11.9097 8.92631 11.7736 7.52166 11.7736C7.20448 11.819 6.88731 11.819 6.52482 11.9097C6.16233 12.0005 5.75453 12.0005 5.34673 12.0005H0.634356C0.4078 12.0005 0.181245 12.0005 0 12.2275V13.3168C0.0453111 13.7253 -2.8358e-07 14.043 0.135933 14.3607C0.271867 14.7692 0.226555 14.9962 0.090621 15.3139C0.226555 15.5409 0.271866 15.7678 0.543733 15.904C1.26871 15.8132 2.08431 16.0855 2.99054 15.5862Z"></path>
<path fill="CurrentColor" d="M2.99253 3.90345C3.44564 4.22117 3.89875 4.22117 4.35186 4.22117C5.62058 4.22117 6.93461 4.40272 8.20332 4.26656C9.15486 4.13039 10.3783 4.22117 11.511 4.22117C11.6017 4.22117 11.7376 4.17578 11.8735 4.17578C12.8251 3.99422 13.7313 3.90344 14.6828 4.17578C14.8188 3.99422 14.9094 3.81267 15 3.63111C14.7734 2.63256 14.8188 1.95172 14.8188 0.907778C14.5469 0.726223 14.6375 0.272332 14.275 0.0907764C14.275 0.0907764 14.2297 0.045389 14.1391 0C13.9125 0.045389 13.2329 0.317721 12.9157 0.0907764C12.8251 0.0453876 12.5532 0.0453868 12.4626 0.136165C12.0548 0.363109 12.1454 0.226945 11.7376 0.226945C10.3329 0.226945 8.9283 0.0907764 7.52365 0.0907764C7.20647 0.136165 6.8893 0.136167 6.52681 0.226945C6.16432 0.317722 5.75651 0.317721 5.34871 0.317721H0.636349C0.409793 0.317721 0.183236 0.317721 0.00199121 0.544666V1.634C0.0473023 2.0425 0.0019892 2.36022 0.137923 2.67795C0.273856 3.08645 0.228546 3.31339 0.0926122 3.63111C0.228546 3.85806 0.273857 4.085 0.545724 4.22117C1.2707 4.13039 2.08631 4.40272 2.99253 3.90345Z"></path>
</svg>