<svg viewBox="0 0 80 80" fill="none" xmlns="http://www.w3.org/2000/svg"><path d="M67.864 24.594a22.51 22.51 0 01-6.33 1.694 10.863 10.863 0 004.837-5.964 22.228 22.228 0 01-6.987 2.625 11.07 11.07 0 00-5.623-3.13 11.234 11.234 0 00-6.449.5 10.97 10.97 0 00-5.048 3.96 10.616 10.616 0 00-1.623 8.501 31.787 31.787 0 01-12.563-3.268 31.139 31.139 0 01-10.118-7.989 10.59 10.59 0 00-1.203 7.85 10.79 10.79 0 004.61 6.53 11.116 11.116 0 01-4.985-1.347v.14c0 2.488.878 4.899 2.488 6.824a11.05 11.05 0 006.34 3.738 11.332 11.332 0 01-4.97.184 10.782 10.782 0 003.915 5.353 11.161 11.161 0 006.366 2.123c-4.616 3.54-10.476 5.144-16.298 4.463a31.602 31.602 0 0016.87 4.843c20.245 0 31.313-16.415 31.313-30.625 0-.464 0-.932-.032-1.391a22.187 22.187 0 005.485-5.574l.005-.04z" fill="lightyellow"></path></svg>