<svg width="281" height="281" viewBox="0 0 281 281" fill="none" xmlns="http://www.w3.org/2000/svg">
<circle cx="140.4" cy="140.4" r="140.4" fill="none"/>
<path d="M70.3797 144.424C88.9746 141.471 99.0021 151.265 103.831 176.934C104.11 177.006 104.409 177.142 104.714 177.148C111.548 177.233 110.438 177.479 110.451 171.495C110.484 150.947 110.464 130.398 110.464 109.85C110.464 103.586 110.464 103.587 104.207 104.184C102.676 109.817 101.391 115.425 99.6122 120.877C96.3995 130.703 88.9421 135.234 79.0962 136.441C76.3313 136.785 73.547 136.992 70.2174 137.31C70.2174 135.831 70.2174 134.695 70.2174 133.553C70.2174 117.658 70.2174 101.756 70.2174 85.8613C70.2174 78.3714 72.3463 75.3209 79.7583 74.7887C92.5053 73.8736 105.337 74.2112 116.877 80.5782C121.959 83.3821 126.255 87.6527 130.805 91.3781C133.096 93.2539 133.278 95.7592 132.557 98.563C131.714 101.86 131.201 105.235 130.5 108.824C137.133 108.824 143.377 108.824 149.926 108.824C149.205 105.092 148.569 101.36 147.738 97.6738C147.252 95.5255 147.576 93.9289 149.049 92.0792C157.357 81.6556 168.527 76.6321 181.358 75.36C188.582 74.6395 195.968 74.8797 203.231 75.3989C207.8 75.7299 210.552 79.397 210.565 83.8364C210.63 101.029 210.585 118.229 210.572 135.422C210.572 135.837 210.461 136.253 210.409 136.622C196.637 139.673 183.338 131.313 179.346 117.028C178.399 113.64 177.867 110.129 177.321 106.644C177.023 104.729 176.341 103.697 174.232 103.957C173.077 104.099 171.889 103.983 170.5 103.983C170.5 128.393 170.5 152.556 170.5 176.993C171.571 177.051 172.622 177.031 173.648 177.174C176.283 177.551 177.068 176.428 177.393 173.819C178.282 166.647 180.08 159.715 184.292 153.627C188.472 147.591 194.806 145.774 201.517 144.729C204.354 144.288 207.242 144.171 210.597 143.866C210.597 145.488 210.597 146.637 210.597 147.786C210.597 163.467 210.598 179.147 210.591 194.828C210.591 202.396 207.82 205.927 200.239 206.413C188.686 207.16 177.211 206.55 166.275 202.013C159.012 198.995 153.093 194.276 148.368 188.091C147.602 187.085 147.505 185.235 147.719 183.879C148.465 179.238 149.497 174.637 150.471 169.756C143.526 169.756 136.899 169.756 130.026 169.756C130.967 174.974 131.928 180.017 132.733 185.086C132.875 185.975 132.629 187.156 132.11 187.877C125.074 197.69 115.137 202.85 103.578 205.193C94.8483 206.965 86.0214 207.251 77.2204 205.816C72.6317 205.07 70.2304 202.006 70.2174 197.489C70.185 180.4 70.2045 163.317 70.2109 146.228C70.2369 145.618 70.3343 144.995 70.3797 144.424Z" fill="#C56348"/>
</svg>
